HIERARCHY
ROOT Root
{
  OFFSET 0.0 0.0 0.0
  CHANNELS 6 Xposition Yposition Zposition Zrotation Yrotation Xrotation
  JOINT Hips
  {
    OFFSET 0.0 100.0 0.0
    CHANNELS 6 Xposition Yposition Zposition Zrotation Yrotation Xrotation
    JOINT Spine1
    {
      OFFSET 5.003913 -0.037094 -0.013727
      CHANNELS 3 Zrotation Yrotation Xrotation
      JOINT Spine2
      {
        OFFSET 7.125363 -1e-06 0.0
        CHANNELS 3 Zrotation Yrotation Xrotation
        JOINT Chest
        {
          OFFSET 7.594027 1e-06 0.0
          CHANNELS 3 Zrotation Yrotation Xrotation
          JOINT Neck1
          {
            OFFSET 26.313086 -0.460272 -0.181672
            CHANNELS 3 Zrotation Yrotation Xrotation
            JOINT Neck2
            {
              OFFSET 8.045911 0.0 0.0
              CHANNELS 3 Zrotation Yrotation Xrotation
              JOINT Head
              {
                OFFSET 6.432774 0.0 0.0
                CHANNELS 3 Zrotation Yrotation Xrotation
                JOINT HeadEnd
                {
                  OFFSET 16.169773 0.06451 0.00362
                  CHANNELS 3 Zrotation Yrotation Xrotation
                }
                JOINT Jaw
                {
                  OFFSET 0.108741 3.12938 0.002639
                  CHANNELS 3 Zrotation Yrotation Xrotation
                }
                JOINT LeftEye
                {
                  OFFSET 4.45173 8.166359 3.206392
                  CHANNELS 3 Zrotation Yrotation Xrotation
                }
                JOINT RightEye
                {
                  OFFSET 4.436895 8.135758 -3.222429
                  CHANNELS 3 Zrotation Yrotation Xrotation
                }
              }
            }
          }
          JOINT LeftShoulder
          {
            OFFSET 23.218927 5.195579 1.621656
            CHANNELS 3 Zrotation Yrotation Xrotation
            JOINT LeftArm
            {
              OFFSET 15.902118 2e-06 -2e-06
              CHANNELS 3 Zrotation Yrotation Xrotation
              JOINT LeftForeArm
              {
                OFFSET 28.739307 0.0 -1e-06
                CHANNELS 3 Zrotation Yrotation Xrotation
                JOINT LeftHand
                {
                  OFFSET 27.093981 -4e-06 0.0
                  CHANNELS 3 Zrotation Yrotation Xrotation
                  JOINT LeftHandThumb1
                  {
                    OFFSET 2.276781 3.380274 0.83384
                    CHANNELS 3 Zrotation Yrotation Xrotation
                    JOINT LeftHandThumb2
                    {
                      OFFSET 4.705309 -1e-06 -1e-06
                      CHANNELS 3 Zrotation Yrotation Xrotation
                      JOINT LeftHandThumb3
                      {
                        OFFSET 2.798515 0.0 3e-06
                        CHANNELS 3 Zrotation Yrotation Xrotation
                        JOINT LeftHandThumbEnd
                        {
                          OFFSET 3.180793 4e-06 -4e-06
                          CHANNELS 3 Zrotation Yrotation Xrotation
                        }
                      }
                    }
                  }
                  JOINT LeftHandIndex1
                  {
                    OFFSET 3.247786 2.352677 0.137192
                    CHANNELS 3 Zrotation Yrotation Xrotation
                    JOINT LeftHandIndex2
                    {
                      OFFSET 6.367095 1e-06 0.0
                      CHANNELS 3 Zrotation Yrotation Xrotation
                      JOINT LeftHandIndex3
                      {
                        OFFSET 3.662364 0.0 0.0
                        CHANNELS 3 Zrotation Yrotation Xrotation
                        JOINT LeftHandIndex4
                        {
                          OFFSET 2.329242 4e-06 -4e-06
                          CHANNELS 3 Zrotation Yrotation Xrotation
                          JOINT LeftHandIndexEnd
                          {
                            OFFSET 2.767823 1e-06 0.0
                            CHANNELS 3 Zrotation Yrotation Xrotation
                          }
                        }
                      }
                    }
                  }
                  JOINT LeftHandMiddle1
                  {
                    OFFSET 3.163612 0.945023 -0.406112
                    CHANNELS 3 Zrotation Yrotation Xrotation
                    JOINT LeftHandMiddle2
                    {
                      OFFSET 6.276789 3e-06 0.0
                      CHANNELS 3 Zrotation Yrotation Xrotation
                      JOINT LeftHandMiddle3
                      {
                        OFFSET 4.35652 -1e-06 4e-06
                        CHANNELS 3 Zrotation Yrotation Xrotation
                        JOINT LeftHandMiddle4
                        {
                          OFFSET 2.996877 0.0 8e-06
                          CHANNELS 3 Zrotation Yrotation Xrotation
                          JOINT LeftHandMiddleEnd
                          {
                            OFFSET 2.323256 3e-06 -4e-06
                            CHANNELS 3 Zrotation Yrotation Xrotation
                          }
                        }
                      }
                    }
                  }
                  JOINT LeftHandRing1
                  {
                    OFFSET 2.882606 -0.309162 0.107445
                    CHANNELS 3 Zrotation Yrotation Xrotation
                    JOINT LeftHandRing2
                    {
                      OFFSET 6.033198 0.0 4e-06
                      CHANNELS 3 Zrotation Yrotation Xrotation
                      JOINT LeftHandRing3
                      {
                        OFFSET 4.350578 3e-06 0.0
                        CHANNELS 3 Zrotation Yrotation Xrotation
                        JOINT LeftHandRing4
                        {
                          OFFSET 2.651321 2e-06 -7e-06
                          CHANNELS 3 Zrotation Yrotation Xrotation
                          JOINT LeftHandRingEnd
                          {
                            OFFSET 1.937663 1e-06 -4e-06
                            CHANNELS 3 Zrotation Yrotation Xrotation
                          }
                        }
                      }
                    }
                  }
                  JOINT LeftHandPinky1
                  {
                    OFFSET 2.865315 -1.525436 0.575687
                    CHANNELS 3 Zrotation Yrotation Xrotation
                    JOINT LeftHandPinky2
                    {
                      OFFSET 5.54936 1e-06 -8e-06
                      CHANNELS 3 Zrotation Yrotation Xrotation
                      JOINT LeftHandPinky3
                      {
                        OFFSET 3.070974 0.0 -4e-06
                        CHANNELS 3 Zrotation Yrotation Xrotation
                        JOINT LeftHandPinky4
                        {
                          OFFSET 1.549672 1e-06 0.0
                          CHANNELS 3 Zrotation Yrotation Xrotation
                          JOINT LeftHandPinkyEnd
                          {
                            OFFSET 1.952123 0.0 0.0
                            CHANNELS 3 Zrotation Yrotation Xrotation
                          }
                        }
                      }
                    }
                  }
                }
              }
            }
          }
          JOINT RightShoulder
          {
            OFFSET 23.161716 5.296122 -1.380114
            CHANNELS 3 Zrotation Yrotation Xrotation
            JOINT RightArm
            {
              OFFSET -16.027195 -2e-06 1.1e-05
              CHANNELS 3 Zrotation Yrotation Xrotation
              JOINT RightForeArm
              {
                OFFSET -28.736639 4e-06 2e-06
                CHANNELS 3 Zrotation Yrotation Xrotation
                JOINT RightHand
                {
                  OFFSET -27.133619 6e-06 0.0
                  CHANNELS 3 Zrotation Yrotation Xrotation
                  JOINT RightHandThumb1
                  {
                    OFFSET -2.274328 -3.351035 -0.83067
                    CHANNELS 3 Zrotation Yrotation Xrotation
                    JOINT RightHandThumb2
                    {
                      OFFSET -4.703594 -3e-06 2e-06
                      CHANNELS 3 Zrotation Yrotation Xrotation
                      JOINT RightHandThumb3
                      {
                        OFFSET -2.794935 -4e-06 -3e-06
                        CHANNELS 3 Zrotation Yrotation Xrotation
                        JOINT RightHandThumbEnd
                        {
                          OFFSET -3.183852 4e-06 1e-06
                          CHANNELS 3 Zrotation Yrotation Xrotation
                        }
                      }
                    }
                  }
                  JOINT RightHandIndex1
                  {
                    OFFSET -3.253496 -2.33755 -0.127667
                    CHANNELS 3 Zrotation Yrotation Xrotation
                    JOINT RightHandIndex2
                    {
                      OFFSET -6.344434 0.0 0.0
                      CHANNELS 3 Zrotation Yrotation Xrotation
                      JOINT RightHandIndex3
                      {
                        OFFSET -3.654871 0.0 -8e-06
                        CHANNELS 3 Zrotation Yrotation Xrotation
                        JOINT RightHandIndex4
                        {
                          OFFSET -2.327586 -1e-06 0.0
                          CHANNELS 3 Zrotation Yrotation Xrotation
                          JOINT RightHandIndexEnd
                          {
                            OFFSET -2.770001 3e-06 8e-06
                            CHANNELS 3 Zrotation Yrotation Xrotation
                          }
                        }
                      }
                    }
                  }
                  JOINT RightHandMiddle1
                  {
                    OFFSET -3.168223 -0.944764 0.411762
                    CHANNELS 3 Zrotation Yrotation Xrotation
                    JOINT RightHandMiddle2
                    {
                      OFFSET -6.266691 -1e-06 -4e-06
                      CHANNELS 3 Zrotation Yrotation Xrotation
                      JOINT RightHandMiddle3
                      {
                        OFFSET -4.348901 0.0 0.0
                        CHANNELS 3 Zrotation Yrotation Xrotation
                        JOINT RightHandMiddle4
                        {
                          OFFSET -3.00024 2e-06 -4e-06
                          CHANNELS 3 Zrotation Yrotation Xrotation
                          JOINT RightHandMiddleEnd
                          {
                            OFFSET -2.321477 -4e-06 -4e-06
                            CHANNELS 3 Zrotation Yrotation Xrotation
                          }
                        }
                      }
                    }
                  }
                  JOINT RightHandRing1
                  {
                    OFFSET -2.885654 0.293261 -0.119232
                    CHANNELS 3 Zrotation Yrotation Xrotation
                    JOINT RightHandRing2
                    {
                      OFFSET -6.032835 -1e-06 -4e-06
                      CHANNELS 3 Zrotation Yrotation Xrotation
                      JOINT RightHandRing3
                      {
                        OFFSET -4.33881 0.0 -4e-06
                        CHANNELS 3 Zrotation Yrotation Xrotation
                        JOINT RightHandRing4
                        {
                          OFFSET -2.654903 -4e-06 -4e-06
                          CHANNELS 3 Zrotation Yrotation Xrotation
                          JOINT RightHandRingEnd
                          {
                            OFFSET -1.935122 0.0 4e-06
                            CHANNELS 3 Zrotation Yrotation Xrotation
                          }
                        }
                      }
                    }
                  }
                  JOINT RightHandPinky1
                  {
                    OFFSET -2.866241 1.503904 -0.60527
                    CHANNELS 3 Zrotation Yrotation Xrotation
                    JOINT RightHandPinky2
                    {
                      OFFSET -5.553177 -2e-06 0.0
                      CHANNELS 3 Zrotation Yrotation Xrotation
                      JOINT RightHandPinky3
                      {
                        OFFSET -3.062664 -1e-06 -4e-06
                        CHANNELS 3 Zrotation Yrotation Xrotation
                        JOINT RightHandPinky4
                        {
                          OFFSET -1.546529 2e-06 4e-06
                          CHANNELS 3 Zrotation Yrotation Xrotation
                          JOINT RightHandPinkyEnd
                          {
                            OFFSET -1.952341 0.0 -4e-06
                            CHANNELS 3 Zrotation Yrotation Xrotation
                          }
                        }
                      }
                    }
                  }
                }
              }
            }
          }
        }
      }
    }
    JOINT LeftLeg
    {
      OFFSET -8.443107 2.567604 10.043214
      CHANNELS 3 Zrotation Yrotation Xrotation
      JOINT LeftShin
      {
        OFFSET 43.229198 1e-06 -1e-06
        CHANNELS 3 Zrotation Yrotation Xrotation
        JOINT LeftFoot
        {
          OFFSET 42.298611 1e-06 1e-06
          CHANNELS 3 Zrotation Yrotation Xrotation
          JOINT LeftToeBase
          {
            OFFSET 14.165858 1e-06 0.0
            CHANNELS 3 Zrotation Yrotation Xrotation
            JOINT LeftToeEnd
            {
              OFFSET 6.7141 -0.234461 0.0
              CHANNELS 3 Zrotation Yrotation Xrotation
            }
          }
        }
      }
    }
    JOINT RightLeg
    {
      OFFSET -8.303923 2.592729 -10.047278
      CHANNELS 3 Zrotation Yrotation Xrotation
      JOINT RightShin
      {
        OFFSET -43.369682 0.0 1e-06
        CHANNELS 3 Zrotation Yrotation Xrotation
        JOINT RightFoot
        {
          OFFSET -42.260784 4e-06 2e-06
          CHANNELS 3 Zrotation Yrotation Xrotation
          JOINT RightToeBase
          {
            OFFSET -14.222245 -2e-06 -1e-06
            CHANNELS 3 Zrotation Yrotation Xrotation
            JOINT RightToeEnd
            {
              OFFSET -6.660062 0.232574 -2e-06
              CHANNELS 3 Zrotation Yrotation Xrotation
            }
          }
        }
      }
    }
  }
}
MOTION
Frames: 4
Frame Time: 0.03333333333333333
0.0 0.0 0.0 0.0 -0.0 0.0 -11.353003 50.743233 106.554367 95.534584 -61.049385 81.679245 12.926699 -1.732272 -1.424078 -5.12183 -1.235157 -1.250723 19.484694 -0.444685 -3.17743 20.667372 1.492978 2.850127 -2.635782 -0.942602 2.318821 -24.951233 2.012874 1.587947 6e-06 -0.0 0.0 -0.252882 -0.042331 -0.008519 -0.459499 0.037545 -0.059913 -0.403621 -0.124894 0.027842 -15.892013 -67.670975 22.544516 56.788635 -20.569878 -55.066097 54.974503 0.279455 1.326439 50.514488 60.478233 61.447983 17.636631 -26.322735 52.411205 -19.466661 -14.395596 29.410393 -1e-06 -8.774821 -2e-06 16.454161 -18.627575 7.263197 -0.609777 -1.795654 -3.889328 -4.807087 -11.046811 -2.937851 5e-06 -20.976019 -1e-06 -5.01997 -25.03356 -4.031883 6e-06 -2e-06 -0.0 -10.634534 -5.686971 -3.565589 10.573272 -17.922951 -3.113901 3e-06 -13.821211 1e-06 -0.501776 -31.181505 -4.027017 -11.88755 -60.968491 8.544525 -13.982712 -7.150198 -2.875043 13.772727 -8.401493 -3.218242 0.347734 -34.211552 0.771654 -0.963029 -17.73337 2.62102 -0.0 -1e-06 1e-06 -17.346418 -20.095221 -4.201784 21.757555 -1.638372 3.866428 1e-06 -6.338825 1e-06 -1.697588 -22.591747 -6.194007 -1e-06 -7e-06 -2e-06 165.525116 -68.345169 15.006192 103.647346 0.80962 -29.122776 5.04822 0.037717 0.030635 52.22567 77.157692 51.441326 22.182119 -20.375895 49.933319 -16.701811 -16.743526 28.476528 -1e-06 -12.690601 -1e-06 16.035795 -17.653461 2.9448 -0.10592 -1.513857 -4.275882 -5.039041 -5.612871 -2.953557 3e-06 -11.020525 -2e-06 -6.111298 -15.895338 -3.84047 -1e-06 -0.0 -1e-06 -10.283371 -5.680289 -4.341838 11.028295 -11.302406 -2.372632 -1.384269 -14.238581 -6.320121 -0.625439 -26.924194 -3.827601 -3.65403 -49.41468 -4.553078 -13.708524 -7.363476 -3.72094 18.141148 -14.052741 -3.242674 6e-06 -18.787271 -2e-06 -0.429713 -8.456048 2.555504 -0.0 -1e-06 0.0 -15.923536 -20.094484 -5.473583 30.41921 -7.190823 1.735927 1e-06 -8.162922 -0.0 -1.861901 -22.861469 -6.167943 -1e-06 -1e-06 -1e-06 118.186371 0.465205 0.084613 105.301506 0.767449 0.203566 -60.32148 15.006264 -13.574585 -15.22455 1.30178 2.090741 -0.999998 0.0 -1e-06 -56.479141 -1.141831 10.407163 111.226814 -0.995203 -0.10815 -64.441063 4.064667 -8.028708 -7.354205 0.456661 1.91885 -1.000002 0.0 -0.0 
0.0 0.0 0.0 0.0 -0.0 0.0 -11.200475 50.742893 107.691086 95.16893 -60.596127 82.088402 13.256708 -1.458727 -1.338281 -4.994837 -1.13162 -1.394217 19.575544 0.183814 -3.129598 20.615067 0.800288 2.785159 -2.627231 -0.894272 2.121205 -24.749523 2.186089 1.281052 6e-06 -0.0 0.0 -0.25669 -0.096164 0.000974 -0.441885 -0.012556 -0.049719 -0.399761 -0.182953 0.039953 -16.736879 -65.916862 22.597012 57.466576 -15.938906 -55.444016 49.536022 0.513615 1.210216 43.925201 61.458672 53.792324 17.636623 -26.322718 52.411171 -19.46666 -14.395594 29.410381 -1e-06 -8.774821 -3e-06 16.409546 -18.562962 7.219641 -0.609776 -1.795653 -3.889326 -4.807087 -11.046807 -2.93785 4e-06 -20.976011 -1e-06 -5.019969 -25.033546 -4.03188 6e-06 1e-06 -0.0 -10.634531 -5.686969 -3.565586 10.573271 -17.922945 -3.1139 2e-06 -13.821205 1e-06 -0.501777 -31.181498 -4.027016 -11.840738 -60.86198 8.394542 -13.982711 -7.150196 -2.875041 13.772727 -8.401489 -3.218241 0.347734 -34.211544 0.771654 -0.963028 -17.733366 2.621018 -0.0 -1e-06 -0.0 -17.346413 -20.095213 -4.20178 21.757553 -1.638374 3.866426 1e-06 -6.338822 0.0 -1.697588 -22.591738 -6.194005 -0.0 -5e-06 -2e-06 166.477997 -68.412346 14.069598 103.475044 0.323814 -28.089369 4.962394 -0.067641 0.027192 54.826099 77.644676 54.582954 22.182112 -20.375898 49.933319 -16.701815 -16.74353 28.476534 -1e-06 -12.690601 -0.0 16.060686 -17.717331 2.908005 -0.105919 -1.513857 -4.275881 -5.03904 -5.612872 -2.953557 3e-06 -11.020527 -1e-06 -6.1113 -15.895341 -3.840471 -0.0 1e-06 0.0 -10.283369 -5.680288 -4.341837 11.028294 -11.302406 -2.372633 -1.384269 -14.238581 -6.320122 -0.625441 -26.924198 -3.827602 -3.759795 -49.601833 -4.511428 -13.708522 -7.363478 -3.720939 18.141148 -14.052739 -3.242675 6e-06 -18.787271 -2e-06 -0.429714 -8.456049 2.555503 0.0 1e-06 -0.0 -15.923532 -20.094484 -5.473584 30.41921 -7.190825 1.735923 1e-06 -8.162925 -0.0 -1.861904 -22.861473 -6.167942 -1e-06 -4e-06 -1e-06 120.170677 1.041631 0.383772 103.728218 0.766571 0.15716 -60.075256 15.179949 -13.560121 -14.953771 1.283697 2.076305 -0.999997 -1e-06 -0.0 -60.638721 -1.081731 10.968289 115.134972 -0.892226 -0.100021 -66.789139 4.365441 -7.685318 -7.766757 0.481467 1.918612 -1.000003 0.0 -0.0 
0.0 0.0 0.0 0.0 -0.0 0.0 -11.079982 50.671196 108.858406 94.633926 -60.037384 82.830383 13.554211 -1.162528 -1.262223 -4.863076 -1.015052 -1.573138 19.76034 0.790374 -3.15328 20.540159 0.313911 2.747079 -2.619987 -0.848101 1.988241 -24.579325 2.258072 1.017706 6e-06 -0.0 0.0 -0.257908 -0.134709 0.008425 -0.438156 -0.045716 -0.045248 -0.406523 -0.22716 0.053157 -17.244724 -64.154243 22.257759 58.634209 -11.248173 -55.21381 42.479607 0.624822 0.972104 36.496037 62.423073 44.464695 17.63662 -26.322725 52.411194 -19.46666 -14.395598 29.410393 -0.0 -8.774822 -2e-06 16.446012 -18.588915 7.086094 -0.609776 -1.795653 -3.889328 -4.807088 -11.046807 -2.93785 4e-06 -20.976015 -1e-06 -5.019969 -25.033552 -4.031881 6e-06 -0.0 1e-06 -10.634531 -5.686968 -3.565588 10.573272 -17.922947 -3.113901 3e-06 -13.821202 0.0 -0.501775 -31.181488 -4.027016 -11.806093 -60.680508 8.214244 -13.982712 -7.150196 -2.875042 13.772729 -8.401489 -3.218242 0.347735 -34.21154 0.771654 -0.963028 -17.733362 2.62102 0.0 0.0 -0.0 -17.346415 -20.095209 -4.201784 21.757557 -1.638375 3.866426 1e-06 -6.338822 1e-06 -1.697588 -22.591738 -6.194005 0.0 -5e-06 -2e-06 167.359314 -68.634499 13.279854 103.198128 -0.166203 -27.006929 4.863912 -0.215475 0.021905 56.995552 78.015511 57.273281 22.182121 -20.375898 49.933327 -16.701815 -16.743532 28.476532 -2e-06 -12.690602 -1e-06 16.131472 -17.748365 2.856956 -0.105919 -1.513855 -4.275882 -5.039041 -5.612871 -2.953557 4e-06 -11.020525 -1e-06 -6.111298 -15.895334 -3.840471 -0.0 -0.0 -0.0 -10.283371 -5.680287 -4.34184 11.028296 -11.302404 -2.372633 -1.384268 -14.238576 -6.32012 -0.625437 -26.924187 -3.827599 -3.864326 -49.744976 -4.447332 -13.708527 -7.363477 -3.720939 18.141153 -14.052739 -3.242674 7e-06 -18.787268 -0.0 -0.429713 -8.456047 2.555505 0.0 2e-06 -0.0 -15.923534 -20.094481 -5.473588 30.419222 -7.19083 1.735924 2e-06 -8.162922 1e-06 -1.861903 -22.861469 -6.167941 -2e-06 -2e-06 -0.0 122.303719 1.60297 0.806581 102.132843 0.754522 0.095586 -59.580204 15.256248 -13.506565 -14.556355 1.267561 2.080582 -0.999997 1e-06 -1e-06 -64.764816 -1.036515 11.348762 118.93045 -0.790204 -0.090585 -69.292328 4.793999 -7.358614 -8.362142 0.508436 1.907361 -1.000003 -0.0 0.0 
0.0 0.0 0.0 0.0 -0.0 0.0 -10.996203 50.52734 110.013351 93.960396 -59.411335 83.850319 13.813745 -0.868523 -1.200786 -4.724847 -0.898133 -1.793345 20.029217 1.377373 -3.253702 20.438519 0.08386 2.744215 -2.607403 -0.826301 1.906592 -24.402102 2.176955 0.845033 6e-06 0.0 0.0 -0.255618 -0.157532 0.01334 -0.445 -0.060382 -0.045991 -0.419323 -0.258311 0.065707 -17.305674 -62.482727 21.468241 60.0397 -6.834147 -54.448174 34.575832 0.474517 0.630964 28.3074 62.954235 33.73156 17.636625 -26.322729 52.411182 -19.46665 -14.395596 29.410381 -1e-06 -8.774819 -2e-06 16.474236 -18.686935 6.914156 -0.609776 -1.795653 -3.889327 -4.807088 -11.046807 -2.93785 5e-06 -20.976013 -0.0 -5.019969 -25.033552 -4.031878 6e-06 -0.0 0.0 -10.634531 -5.686968 -3.565587 10.573272 -17.922945 -3.113899 2e-06 -13.821209 3e-06 -0.501779 -31.181498 -4.027012 -11.759224 -60.443405 8.030958 -13.982712 -7.150195 -2.875041 13.772726 -8.401489 -3.21824 0.347733 -34.211536 0.771657 -0.963029 -17.733366 2.621021 -0.0 -1e-06 0.0 -17.346415 -20.095209 -4.201781 21.757555 -1.638376 3.866428 1e-06 -6.338822 2e-06 -1.697589 -22.591738 -6.194004 0.0 -4e-06 -2e-06 167.99353 -69.042221 12.800819 102.938751 -0.653322 -25.976091 4.815486 -0.383121 0.013166 59.198536 78.252762 60.030758 22.182112 -20.375898 49.933327 -16.701813 -16.74353 28.476532 -2e-06 -12.690601 0.0 16.219753 -17.73226 2.813827 -0.105919 -1.513857 -4.275883 -5.039041 -5.61287 -2.953556 3e-06 -11.020523 -1e-06 -6.111297 -15.895336 -3.840472 -1e-06 -0.0 -1e-06 -10.283371 -5.68029 -4.34184 11.028293 -11.302404 -2.372634 -1.384268 -14.238577 -6.320123 -0.625437 -26.924183 -3.827603 -3.973478 -49.826897 -4.365608 -13.708524 -7.363479 -3.72094 18.14115 -14.052737 -3.242676 6e-06 -18.787268 -2e-06 -0.429712 -8.456043 2.555503 -0.0 1e-06 0.0 -15.923536 -20.094484 -5.473587 30.41921 -7.190823 1.735926 1e-06 -8.162924 1e-06 -1.861901 -22.861467 -6.167942 -1e-06 -4e-06 -1e-06 124.489952 2.117901 1.356019 100.58297 0.731951 0.029064 -58.890759 15.248027 -13.497407 -14.061076 1.243874 2.102116 -0.999998 0.0 -0.0 -68.81942 -0.980604 11.51444 122.618141 -0.678725 -0.079113 -71.787117 5.234803 -7.078324 -9.058674 0.539882 1.87961 -1.0 -0.0 0.0 
